<?xml version="1.0" standalone="no"?>
<!DOCTYPE svg PUBLIC "-//W3C//DTD SVG 20010904//EN"
 "http://www.w3.org/TR/2001/REC-SVG-20010904/DTD/svg10.dtd">
<svg version="1.0" xmlns="http://www.w3.org/2000/svg"
 width="512.000000pt" height="512.000000pt" viewBox="0 0 512.000000 512.000000"
 preserveAspectRatio="xMidYMid meet">
<metadata>
Created by potrace 1.11, written by Peter Selinger 2001-2013
</metadata>
<g transform="translate(0.000000,512.000000) scale(0.100000,-0.100000)"
fill="#000000" stroke="none">
<path d="M0 2560 l0 -2560 2560 0 2560 0 0 2560 0 2560 -2560 0 -2560 0 0
-2560z m2136 495 c29 -8 62 -28 81 -47 60 -62 63 -79 63 -387 0 -311 0 -311
66 -311 24 0 34 -5 34 -15 0 -11 -12 -15 -45 -15 -66 0 -85 23 -85 102 l0 62
-29 -45 c-97 -153 -374 -188 -493 -62 -35 36 -48 73 -48 131 0 73 18 123 59
162 50 47 88 58 273 75 218 19 246 38 235 153 -8 75 -35 122 -88 152 -38 22
-56 25 -134 25 -74 -1 -99 -5 -139 -25 -58 -28 -100 -82 -116 -150 -8 -33 -17
-50 -27 -50 -20 0 -11 66 16 118 61 118 224 173 377 127z m1170 -18 c105 -53
171 -164 181 -304 l6 -73 -322 0 -322 0 7 -57 c17 -147 66 -233 158 -280 43
-23 64 -27 137 -28 76 0 92 3 144 30 71 36 118 94 141 171 9 33 21 54 30 54
37 0 -10 -131 -69 -192 -23 -24 -64 -55 -92 -68 -43 -22 -64 -25 -155 -25 -99
0 -108 2 -160 31 -104 59 -158 163 -167 324 -3 57 -1 118 6 152 28 131 109
236 215 278 74 29 191 23 262 -13z"/>
<path d="M2230 2715 c-19 -23 -71 -33 -229 -44 -164 -12 -220 -31 -258 -89
-47 -72 -39 -180 19 -234 94 -88 316 -67 409 39 55 63 72 116 77 236 3 59 2
107 0 107 -3 0 -11 -7 -18 -15z"/>
<path d="M3095 3031 c-87 -23 -169 -92 -204 -174 -16 -38 -41 -133 -41 -157 0
-6 119 -10 305 -10 347 0 315 -10 294 92 -23 106 -91 199 -172 233 -45 18
-140 27 -182 16z"/>
</g>
</svg>
